<?xml version="1.0" encoding="utf-8"?>
<!-- Generator: Adobe Illustrator 16.0.0, SVG Export Plug-In . SVG Version: 6.00 Build 0)  -->
<!DOCTYPE svg PUBLIC "-//W3C//DTD SVG 1.1//EN" "http://www.w3.org/Graphics/SVG/1.1/DTD/svg11.dtd">
<svg version="1.1" id="Capa_1" xmlns="http://www.w3.org/2000/svg" xmlns:xlink="http://www.w3.org/1999/xlink" x="0px" y="0px"
	 width="874.742px" height="874.741px" viewBox="0 0 874.742 874.741" enable-background="new 0 0 874.742 874.741"
	 xml:space="preserve">
<g>
	<circle fill="#606163" stroke="#606163" stroke-width="37" stroke-miterlimit="10" cx="437.371" cy="437.373" r="418.871"/>
	<g>
		<circle fill="#FFFFFF" stroke="#FFFFFF" stroke-width="8" stroke-miterlimit="10" cx="437.372" cy="201.343" r="57.649"/>
		<path fill="#FFFFFF" stroke="#FFFFFF" stroke-width="8" stroke-miterlimit="10" d="M513.994,507.802c0,2.998-2.432,5.43-5.43,5.43
			H366.178c-2.998,0-5.428-2.432-5.428-5.43V279.308c0-2.998,2.43-5.43,5.428-5.43h142.387c2.998,0,5.43,2.432,5.43,5.43V507.802z"
			/>
		<g>
			<path fill="#FFFFFF" stroke="#FFFFFF" stroke-width="8" stroke-miterlimit="10" d="M127.834,269.414
				c-2.75,0-4.979-2.432-4.979-5.43v-12.609c0-3,2.229-5.43,4.979-5.43L342.639,274.9c2.748,0,4.977,2.432,4.977,5.43v27.088
				c0,2.998-2.229,5.43-4.977,5.43L127.834,269.414z"/>
			<path fill="#FFFFFF" stroke="#FFFFFF" stroke-width="8" stroke-miterlimit="10" d="M746.91,269.414
				c2.75,0,4.977-2.432,4.977-5.43v-12.609c0-3-2.227-5.43-4.977-5.43L532.105,274.9c-2.748,0-4.977,2.432-4.977,5.43v27.088
				c0,2.998,2.229,5.43,4.977,5.43L746.91,269.414z"/>
		</g>
		<g>
			<path fill="#FFFFFF" stroke="#FFFFFF" stroke-width="8" stroke-miterlimit="10" d="M393.879,761.621
				c0,2.998-2.43,5.428-5.428,5.428h-7.24c-2.998,0-5.428-2.43-5.428-5.428l-13.574-228.496c0-2.998,2.432-5.428,5.43-5.428h34.385
				c2.998,0,5.43,2.43,5.43,5.428L393.879,761.621z"/>
			<path fill="#FFFFFF" stroke="#FFFFFF" stroke-width="8" stroke-miterlimit="10" d="M498.961,761.621
				c0,2.998-2.43,5.428-5.43,5.428h-7.238c-2.998,0-5.43-2.43-5.43-5.428l-13.572-228.496c0-2.998,2.432-5.428,5.43-5.428h34.385
				c2.998,0,5.43,2.43,5.43,5.428L498.961,761.621z"/>
		</g>
	</g>
</g>
</svg>
