<?xml version="1.0" encoding="utf-8"?>
<!-- Generator: Adobe Illustrator 16.0.0, SVG Export Plug-In . SVG Version: 6.00 Build 0)  -->
<!DOCTYPE svg PUBLIC "-//W3C//DTD SVG 1.1//EN" "http://www.w3.org/Graphics/SVG/1.1/DTD/svg11.dtd">
<svg version="1.1" id="Capa_1" xmlns="http://www.w3.org/2000/svg" xmlns:xlink="http://www.w3.org/1999/xlink" x="0px" y="0px"
	 width="50px" height="50px" viewBox="0 0 50 50" enable-background="new 0 0 50 50" xml:space="preserve">
<g>
	<circle fill="#606163" stroke="#606163" stroke-miterlimit="10" cx="25" cy="25" r="23.121"/>
	<g>
		<circle fill="#FFFFFF" stroke="#FFFFFF" stroke-miterlimit="10" cx="25" cy="9.944" r="3.182"/>
		<path fill="#FFFFFF" stroke="#FFFFFF" stroke-miterlimit="10" d="M29.23,27.894c0,0.166-0.136,0.3-0.301,0.3h-7.859
			c-0.166,0-0.3-0.134-0.3-0.3V15.282c0-0.166,0.134-0.3,0.3-0.3h7.859c0.165,0,0.301,0.134,0.301,0.3V27.894z"/>
		<g>
			<path fill="#FFFFFF" stroke="#FFFFFF" stroke-miterlimit="10" d="M6.881,14.735c-0.152,0-0.275-0.134-0.275-0.3v-0.696
				c0-0.166,0.123-0.3,0.275-0.3l11.857,1.599c0.151,0,0.274,0.134,0.274,0.3v1.495c0,0.166-0.123,0.3-0.274,0.3L6.881,14.735z"/>
			<path fill="#FFFFFF" stroke="#FFFFFF" stroke-miterlimit="10" d="M43.12,14.735c0.151,0,0.273-0.134,0.273-0.3v-0.696
				c0-0.166-0.122-0.3-0.273-0.3l-11.857,1.599c-0.152,0-0.274,0.134-0.274,0.3v1.495c0,0.166,0.122,0.3,0.274,0.3L43.12,14.735z"/>
		</g>
		<g>
			<path fill="#FFFFFF" stroke="#FFFFFF" stroke-miterlimit="10" d="M22.6,42.938c0,0.165-0.134,0.3-0.3,0.3H21.9
				c-0.166,0-0.3-0.135-0.3-0.3l-0.75-12.613c0-0.166,0.134-0.3,0.3-0.3h1.897c0.166,0,0.301,0.134,0.301,0.3L22.6,42.938z"/>
			<path fill="#FFFFFF" stroke="#FFFFFF" stroke-miterlimit="10" d="M28.399,42.938c0,0.165-0.134,0.3-0.3,0.3h-0.398
				c-0.166,0-0.301-0.135-0.301-0.3l-0.749-12.613c0-0.166,0.135-0.3,0.301-0.3h1.897c0.165,0,0.3,0.134,0.3,0.3L28.399,42.938z"/>
		</g>
	</g>
</g>
</svg>
