<svg id="Layer_1" xmlns="http://www.w3.org/2000/svg" viewBox="0 0 100 100">
  <style>
    .st0{fill:none;stroke:#999999;stroke-miterlimit:10;} .st1{fill:#E66564;} .st2{fill:#F8BF1B;}
  </style>
  <path id="cube" class="st0" d="M50.7 1.3L7.5 22.8v53.9l43.1 21.6 43.1-21.6V22.8l-43-21.5z"/>
  <path class="st1" d="M82.4 74.8H18.6c-1 0-1.9-.5-2.4-1.4-.5-.9-.5-1.9.1-2.8l31.9-51.4c1-1.6 3.7-1.6 4.7 0l31.8 51.2c.3.4.5 1 .5 1.6 0 1.5-1.3 2.8-2.8 2.8zM50.5 19.3c-.5 0-.9.2-1.1.6L17.5 71.3c-.2.4-.3.9 0 1.3.2.4.7.7 1.1.7h63.8c.7 0 1.3-.6 1.3-1.3 0-.3-.1-.6-.3-.8L51.6 19.9c-.2-.4-.6-.6-1.1-.6z"/>
  <path class="st2" d="M50.4 67.1c-1 0-1.9-.3-2.7-1-.8-.7-1.2-1.6-1.2-2.8 0-1 .4-2 1.1-2.7 1.5-1.5 3.9-1.5 5.4 0 .8.7 1.1 1.6 1.1 2.7 0 1.2-.4 2.1-1.2 2.8-.6.7-1.5 1-2.5 1zm0-6.1c-.7 0-1.2.2-1.7.7-.5.5-.7 1-.7 1.7 0 .8.2 1.3.7 1.7 1 .8 2.4.9 3.4 0 .5-.4.7-1 .7-1.7s-.2-1.2-.7-1.7c-.5-.5-1-.7-1.7-.7zm-.1-3.7c-1 0-1.8-.5-2.2-1.4-.3-.7-.5-1.7-.7-3.1l-.6-9.8c-.1-2-.2-3.3-.2-4.2 0-1.3.4-2.4 1.1-3.2.7-.8 1.7-1.2 2.9-1.2 1.8 0 2.7.9 3 1.6.5.9.7 2.2.7 3.9 0 .9-.1 1.9-.1 2.8l-.9 10.1c-.1 1.3-.3 2.3-.7 3-.5 1.1-1.3 1.5-2.3 1.5zm.3-21.4c-.8 0-1.4.2-1.8.7-.5.5-.7 1.2-.7 2.2 0 .8.1 2.2.2 4.1l.7 9.9c.1 1.2.3 2 .6 2.6.2.4.4.5.9.5.4 0 .7-.2.9-.6.3-.6.5-1.4.5-2.5l.9-10.2c.1-.9.1-1.8.1-2.7 0-1.4-.2-2.5-.5-3.2-.3-.3-.7-.8-1.8-.8z"/>
</svg>
