<svg id="Layer_1" xmlns="http://www.w3.org/2000/svg" viewBox="0 0 100 100">
  <style>
    .st0{fill:none;stroke:#999999;stroke-miterlimit:10;} .st1{fill:#3AA2D8;} .st2{fill:#E66564;} .st3{fill:#F8BF1B;} .st4{fill:#8CBC4D;}
  </style>
  <path id="cube" class="st0" d="M50.7 1.3L7.5 22.8v53.9l43.1 21.6 43.1-21.6V22.8l-43-21.5z"/>
  <g id="discussion">
    <path class="st1" d="M66.5 80.5c-.6 0-1.1-.2-1.5-.6l-6.4-9H24.8c-4.1 0-7.5-3.4-7.5-7.5V33.3c0-4.1 3.4-7.5 7.5-7.5h51.7c4.1 0 7.5 3.4 7.5 7.5v30.1c0 4.1-3.4 7.5-7.5 7.5h-2.1l-6.3 8.9c-.5.4-1 .7-1.6.7zM24.8 27.2c-3.4 0-6.1 2.7-6.1 6.1v30.1c0 3.4 2.7 6.1 6.1 6.1h34.3c.2 0 .4.1.6.3l6.5 9.2c.1.1.6.2.9-.1l6.4-9.1c.1-.2.3-.3.6-.3h2.5c3.4 0 6.1-2.7 6.1-6.1V33.3c0-3.4-2.7-6.1-6.1-6.1H24.8z"/>
    <path class="st2" d="M67.8 54.9c-3.4 0-6.2-2.8-6.2-6.2s2.8-6.2 6.2-6.2 6.2 2.8 6.2 6.2c0 3.4-2.8 6.2-6.2 6.2zm0-10.4c-2.3 0-4.3 1.9-4.3 4.3 0 2.3 1.9 4.3 4.3 4.3 2.3 0 4.3-1.9 4.3-4.3-.1-2.4-2-4.3-4.3-4.3z"/>
    <path class="st3" d="M51.3 54.9c-3.4 0-6.2-2.8-6.2-6.2s2.8-6.2 6.2-6.2 6.2 2.8 6.2 6.2c.1 3.4-2.7 6.2-6.2 6.2zm0-10.4c-2.3 0-4.3 1.9-4.3 4.3 0 2.3 1.9 4.3 4.3 4.3s4.3-1.9 4.3-4.3-1.9-4.3-4.3-4.3z"/>
    <path class="st4" d="M35.3 54.9c-3.4 0-6.2-2.8-6.2-6.2s2.8-6.2 6.2-6.2 6.2 2.8 6.2 6.2c0 3.4-2.8 6.2-6.2 6.2zm0-10.4c-2.4 0-4.3 1.9-4.3 4.3 0 2.3 1.9 4.3 4.3 4.3 2.3 0 4.3-1.9 4.3-4.3-.1-2.4-2-4.3-4.3-4.3z"/>
  </g>
</svg>
