<?xml version="1.0" encoding="utf-8"?>
<!-- Generator: Adobe Illustrator 19.1.0, SVG Export Plug-In . SVG Version: 6.00 Build 0)  -->
<svg version="1.1" id="Layer_1" xmlns="http://www.w3.org/2000/svg" xmlns:xlink="http://www.w3.org/1999/xlink" x="0px" y="0px"
	 viewBox="0 0 100 100" style="enable-background:new 0 0 100 100;" xml:space="preserve">
<style type="text/css">
	.st0{fill:none;stroke:#666666;stroke-miterlimit:10;}
	.st1{fill:#3AA2D8;}
	.st2{display:none;fill:#E66564;}
	.st3{fill:#E66564;}
	.st4{fill:#F8BF1B;}
	.st5{fill:#8CBC4D;}
</style>
<path id="cube" class="st0" d="M50.7,1.3L7.5,22.8v53.9l43.1,21.6l43.1-21.6V22.8L50.7,1.3z"/>
<g id="discussion">
	<g>
		<path class="st1" d="M66.5,80.5c-0.6,0-1.1-0.2-1.5-0.6l-6.4-9H24.8c-4.1,0-7.5-3.4-7.5-7.5V33.3c0-4.1,3.4-7.5,7.5-7.5h51.7
			c4.1,0,7.5,3.4,7.5,7.5v30.1c0,4.1-3.4,7.5-7.5,7.5h-2.1l-6.3,8.9C67.6,80.2,67.1,80.5,66.5,80.5z M24.8,27.2
			c-3.4,0-6.1,2.7-6.1,6.1v30.1c0,3.4,2.7,6.1,6.1,6.1h34.3c0.2,0,0.4,0.1,0.6,0.3l6.5,9.2c0.1,0.1,0.6,0.2,0.9-0.1l6.4-9.1
			c0.1-0.2,0.3-0.3,0.6-0.3h2.5c3.4,0,6.1-2.7,6.1-6.1V33.3c0-3.4-2.7-6.1-6.1-6.1C76.6,27.2,24.8,27.2,24.8,27.2z"/>
		<path class="st2" d="M45.7,37.2c1,0,1.8,0.3,2.4,0.9c0.6,0.6,0.9,1.4,0.9,2.3c0,1.4-0.7,2.4-1.9,3.1c-1.3,0.8-2.3,1.6-3,2.4
			c-0.5,0.6-0.8,1.5-1,2.5c1.5,0.1,2.9,0.7,4.1,1.9c1.3,1.3,2,2.8,2,4.6s-0.7,3.3-2,4.5s-2.9,1.8-4.7,1.8c-2.1,0-3.9-0.8-5.2-2.5
			c-1.3-1.6-1.9-3.9-1.9-6.8c0-2.6,0.5-5.1,1.6-7.3s2.4-4,4-5.4C42.8,37.9,44.3,37.2,45.7,37.2z M42.5,59.8c1.5,0,2.7-0.5,3.7-1.4
			c1-1,1.5-2.1,1.5-3.5s-0.5-2.6-1.5-3.6s-2.2-1.5-3.4-1.5h-0.5c-0.2,0-0.4-0.1-0.5-0.2c-0.1-0.1-0.2-0.3-0.2-0.5
			c0.1-1.6,0.6-3,1.4-4c0.8-1,1.9-1.9,3.4-2.8c0.8-0.4,1.2-1,1.2-1.9c0-0.5-0.2-1-0.5-1.3c-0.9-0.9-3-0.6-5.1,1.2
			c-1.4,1.2-2.7,2.8-3.7,4.9c-1,2-1.5,4.3-1.5,6.7c0,2.6,0.5,4.5,1.6,5.9C39.5,59.2,40.9,59.8,42.5,59.8z M62.3,37.2
			c1,0,1.8,0.3,2.4,0.9c0.6,0.6,0.9,1.4,0.9,2.3c0,1.4-0.7,2.5-1.9,3.1c-1.2,0.7-2.2,1.5-2.9,2.4c-0.5,0.6-0.9,1.5-1,2.5
			c1.5,0.1,2.9,0.7,4.1,1.9c1.3,1.3,1.9,2.8,1.9,4.5c0,1.8-0.7,3.3-1.9,4.5c-1.3,1.2-2.9,1.8-4.7,1.8c-2.1,0-3.8-0.8-5.2-2.5
			c-1.3-1.6-1.9-3.9-1.9-6.7c0-2.6,0.5-5,1.6-7.3s2.4-4.1,4-5.4C59.4,37.9,60.9,37.2,62.3,37.2z M59.2,59.8c1.5,0,2.7-0.5,3.7-1.4
			s1.5-2.1,1.5-3.5s-0.5-2.5-1.5-3.6c-1-1-2.1-1.5-3.3-1.5H59c-0.2,0-0.4-0.1-0.5-0.2c-0.1-0.1-0.2-0.3-0.2-0.5c0.1-1.6,0.6-3,1.4-4
			c0.8-1,1.9-1.9,3.3-2.7c0.8-0.4,1.2-1,1.2-1.9c0-0.5-0.2-0.9-0.5-1.3c-1-1-2.9-0.6-5.1,1.2c-1.4,1.2-2.7,2.9-3.7,4.9
			c-1,2.1-1.5,4.3-1.5,6.6c0,2.5,0.5,4.5,1.6,5.9C56.2,59.1,57.5,59.8,59.2,59.8z"/>
		<path class="st3" d="M67.8,54.9c-3.4,0-6.2-2.8-6.2-6.2s2.8-6.2,6.2-6.2s6.2,2.8,6.2,6.2C74,52.1,71.2,54.9,67.8,54.9z M67.8,44.5
			c-2.3,0-4.3,1.9-4.3,4.3c0,2.3,1.9,4.3,4.3,4.3c2.3,0,4.3-1.9,4.3-4.3C72,46.4,70.1,44.5,67.8,44.5z"/>
		<path class="st4" d="M51.3,54.9c-3.4,0-6.2-2.8-6.2-6.2s2.8-6.2,6.2-6.2s6.2,2.8,6.2,6.2C57.6,52.1,54.8,54.9,51.3,54.9z
			 M51.3,44.5c-2.3,0-4.3,1.9-4.3,4.3c0,2.3,1.9,4.3,4.3,4.3c2.4,0,4.3-1.9,4.3-4.3S53.7,44.5,51.3,44.5z"/>
		<path class="st5" d="M35.3,54.9c-3.4,0-6.2-2.8-6.2-6.2s2.8-6.2,6.2-6.2s6.2,2.8,6.2,6.2C41.5,52.1,38.7,54.9,35.3,54.9z
			 M35.3,44.5c-2.4,0-4.3,1.9-4.3,4.3c0,2.3,1.9,4.3,4.3,4.3c2.3,0,4.3-1.9,4.3-4.3C39.5,46.4,37.6,44.5,35.3,44.5z"/>
	</g>
</g>
</svg>
