<svg id="Layer_1" xmlns="http://www.w3.org/2000/svg" viewBox="0 0 100 100">
  <style>
    .st0{fill:none;stroke:#999999;stroke-miterlimit:10;} .st1{fill:#3AA2D8;} .st2{fill:#F8BF1B;} .st3{fill:#8CBC4D;}
  </style>
  <path id="cube" class="st0" d="M50.7 1.3L7.5 22.8v53.9l43.1 21.6 43.1-21.6V22.8l-43-21.5z"/>
  <g id="activity">
    <path class="st1" d="M50 41.2c-.4 0-1-.1-1.5-.2-.1 0-.2 0-.3-.1l-8.9-4c-.7-.4-1.6-.9-1.6-2.1V24.1c.1-.9.2-1.6.5-2.2s.8-1 1.7-1.5l8.7-4.1c.8-.4 2.1-.4 2.9 0l8.9 4.2c.4.2 1 .5 1.4 1.3.5.8.5 1.5.5 2.3v10.7c0 1.3-1 1.8-1.6 2.1l-9 4c-.2 0-1.1.3-1.7.3zm-1.3-1.8c.1 0 .1.1 0 0 .3.1.9.2 1.3.2.3 0 .9-.1 1.2-.2l8.8-4c.6-.3.7-.5.7-.7V24.1c0-.7-.1-1.1-.3-1.6-.2-.4-.4-.5-.8-.7l-.2-.1-8.6-4c-.4-.2-1.2-.2-1.6 0l-8.7 4.1c-.5.3-.8.6-1 .9s-.2.7-.3 1.6v10.6c0 .3.1.4.8.7l8.7 3.8z"/>
    <path class="st1" d="M49.9 27.9c-.1 0-.2 0-.3-.1l-11.3-4.7c-.4-.2-.6-.6-.4-1 .2-.4.6-.6 1-.4l11.3 4.7c.4.2.6.6.4 1-.1.3-.4.5-.7.5z"/>
    <path class="st1" d="M50 68.1c-.4 0-.8-.3-.8-.8V27.1c0-.4.3-.8.8-.8s.8.3.8.8v40.2c-.1.4-.4.8-.8.8z"/>
    <path class="st1" d="M49.9 27.9c-.3 0-.6-.2-.7-.5-.2-.4 0-.8.4-1l11.2-4.6c.4-.2.8 0 1 .4s0 .8-.4 1l-11.2 4.6c-.1.1-.2.1-.3.1zM61.5 50c-.4 0-.8-.3-.8-.8V37.6c0-.7-.1-1.1-.3-1.6-.2-.4-.1-.8.3-1 .4-.2.8-.1 1 .3.5.8.5 1.5.5 2.3v11.6c.1.4-.2.8-.7.8zm-23.1.1c-.4 0-.8-.3-.8-.8V37.6c.1-.9.2-1.6.5-2.2.2-.4.7-.5 1-.3.4.2.5.7.3 1s-.2.7-.3 1.6v11.6c0 .4-.3.8-.7.8z"/>
    <path class="st2" d="M26.6 68.4c-.4 0-1-.1-1.5-.2-.1 0-.2 0-.3-.1l-8.9-4c-.7-.4-1.6-.9-1.6-2.1V51.3c.1-.9.2-1.6.5-2.2.3-.6.8-1 1.7-1.5l8.7-4.1c.8-.4 2.1-.4 2.9 0l8.9 4.2c.5.2 1 .5 1.4 1.3.2.4.1.8-.3 1-.4.2-.8.1-1-.3-.2-.4-.4-.5-.8-.7l-.3-.1-8.6-4c-.4-.2-1.2-.2-1.6 0L17.1 49c-.5.3-.8.6-1 .9-.2.3-.2.8-.3 1.6v10.6c0 .3.1.4.8.7l8.8 3.9h.1c.2 0 .9.2 1.2.2.4 0 .8.3.8.8s-.5.7-.9.7z"/>
    <path class="st2" d="M38.4 73.8c-.4 0-1-.1-1.5-.2-.1 0-.2 0-.3-.1l-8.9-4c-.7-.4-1.7-.9-1.7-2.1V56.7c.1-1 .2-1.6.5-2.2.3-.6.8-1 1.7-1.5l8.7-4.1c.8-.4 2.1-.4 2.9 0l8.9 4.2c.4.2 1 .5 1.4 1.3.2.4.1.8-.3 1-.4.2-.8.1-1-.3-.2-.4-.4-.5-.8-.7l-.2-.1-8.6-4c-.4-.2-1.2-.2-1.6 0l-8.7 4.1c-.5.3-.8.6-1 .9-.2.4-.3.8-.3 1.6v10.6c0 .3.1.4.8.7l8.8 3.9h.1c.2.1.9.2 1.2.2s.9-.1 1.2-.2l8.8-4c.6-.3.7-.4.7-.7 0-.4.3-.8.8-.8s.8.3.8.8c0 1.3-1 1.8-1.6 2.1l-9 4c-.3.1-1.2.3-1.8.3z"/>
    <path class="st2" d="M38.3 61.5c-.1 0-.2 0-.3-.1l-23.3-9.8c-.4-.2-.6-.6-.4-1 .2-.4.6-.6 1-.4L38.6 60c.4.2.6.6.4 1-.2.3-.4.5-.7.5z"/>
    <path class="st2" d="M38.3 73.7c-.4 0-.8-.3-.8-.8V60.7c0-.4.3-.8.8-.8.4 0 .8.3.8.8v12.2c0 .4-.4.8-.8.8z"/>
    <path class="st2" d="M38.3 61.5c-.3 0-.6-.2-.7-.5-.2-.4 0-.8.4-1l11.6-4.9c.4-.2.8 0 1 .4s0 .8-.4 1l-11.6 4.9c-.1.1-.2.1-.3.1z"/>
    <path class="st3" d="M61.5 73.7c-.4 0-1-.1-1.5-.2-.1 0-.2 0-.3-.1l-8.9-4c-.7-.4-1.6-.9-1.6-2.1 0-.4.3-.8.8-.8.4 0 .8.3.8.8 0 .3.1.4.8.7l8.8 4h.1c.2 0 .9.2 1.2.2.4 0 .8.3.8.8s-.5.7-1 .7zM50.3 55.5c-.1 0-.3 0-.4-.1-.4-.2-.5-.7-.3-1 .3-.6.8-1 1.6-1.5l8.7-4.1c.8-.4 2.1-.4 2.9 0l8.9 4.2c.4.2 1 .5 1.4 1.3.2.4.1.8-.3 1s-.8.1-1-.3c-.2-.4-.4-.5-.8-.7v-.1l-8.6-4c-.4-.2-1.2-.2-1.7 0l-8.7 4c-.5.3-.8.6-1 .9-.1.3-.4.4-.7.4z"/>
    <path class="st3" d="M73.4 79.1c-.4 0-1-.1-1.5-.2-.1 0-.2 0-.3-.1l-8.9-4c-.7-.4-1.6-.9-1.6-2.1V62c.1-1 .2-1.6.5-2.2.3-.6.8-1 1.7-1.5l8.7-4.1c.8-.4 2.1-.4 2.9 0l8.9 4.2c.4.2.9.5 1.4 1.3s.5 1.5.5 2.3v10.7c0 1.3-1.1 1.8-1.6 2.1l-9 4c-.1.1-1 .3-1.7.3zm-1.2-1.7c.3.1.9.2 1.3.2.3 0 .9-.1 1.2-.2l8.8-4c.6-.3.7-.5.7-.7V62c0-.7-.1-1.1-.3-1.6-.2-.4-.4-.5-.8-.7l-.2-.1-8.6-4c-.4-.2-1.2-.2-1.6 0L64 59.7c-.5.3-.8.6-1 .9-.2.3-.2.8-.3 1.6v10.6c0 .3.1.4.8.7l8.7 3.9z"/>
    <path class="st3" d="M73.4 66.9c-.1 0-.2 0-.3-.1L49.8 56.6c-.4-.2-.6-.6-.4-1 .2-.4.6-.6 1-.4l23.3 10.3c.4.2.6.6.4 1-.1.3-.4.4-.7.4z"/>
    <path class="st3" d="M73.4 66.9c-.3 0-.6-.2-.7-.5-.2-.4 0-.8.4-1l11.6-4.9c.4-.2.8 0 1 .4s0 .8-.4 1l-11.6 4.9c-.1.1-.2.1-.3.1z"/>
    <path class="st3" d="M73.4 79.2c-.4 0-.8-.3-.8-.8V66.2c0-.4.3-.8.8-.8.4 0 .8.3.8.8v12.2c0 .4-.3.8-.8.8z"/>
  </g>
</svg>
