<svg xmlns="http://www.w3.org/2000/svg" id="Layer_1" viewBox="0 0 100 100">
  <style>
    .st0{fill:none;stroke:#999999;stroke-miterlimit:10;} .st1{fill:#E66564;} .st2{fill:#F8BF1B;} .st3{fill:#3AA2D8;} .st4{fill:#999999;} .st5{fill:#8CBC4D;}
  </style>
  <path id="cube" d="M50.7 1.3L7.5 22.8v53.9l43.1 21.6 43.1-21.6V22.8l-43-21.5z" class="st0"/>
  <path d="M46 31c-2 0-3.6-1.6-3.6-3.6s1.6-3.6 3.6-3.6 3.6 1.6 3.6 3.6S48 31 46 31zm0-6c-1.3 0-2.4 1.1-2.4 2.4s1.1 2.4 2.4 2.4c1.3 0 2.4-1.1 2.4-2.4S47.3 25 46 25z" class="st1"/>
  <path d="M39.4 31c-2 0-3.6-1.6-3.6-3.6s1.6-3.6 3.6-3.6 3.6 1.6 3.6 3.6-1.6 3.6-3.6 3.6zm0-6c-1.3 0-2.4 1.1-2.4 2.4s1.1 2.4 2.4 2.4c1.3 0 2.4-1.1 2.4-2.4s-1-2.4-2.4-2.4zm12.8 6c-2 0-3.6-1.6-3.6-3.6s1.6-3.6 3.6-3.6 3.6 1.6 3.6 3.6-1.6 3.6-3.6 3.6zm0-6c-1.3 0-2.4 1.1-2.4 2.4s1.1 2.4 2.4 2.4c1.3 0 2.4-1.1 2.4-2.4.1-1.3-1-2.4-2.4-2.4z" class="st1"/>
  <path d="M58.4 31c-2 0-3.6-1.6-3.6-3.6s1.6-3.6 3.6-3.6 3.6 1.6 3.6 3.6-1.6 3.6-3.6 3.6zm0-6c-1.3 0-2.4 1.1-2.4 2.4s1.1 2.4 2.4 2.4c1.3 0 2.4-1.1 2.4-2.4s-1-2.4-2.4-2.4z" class="st2"/>
  <path d="M64.7 31c-2 0-3.6-1.6-3.6-3.6s1.6-3.6 3.6-3.6 3.6 1.6 3.6 3.6-1.6 3.6-3.6 3.6zm0-6c-1.3 0-2.4 1.1-2.4 2.4s1.1 2.4 2.4 2.4 2.4-1.1 2.4-2.4c.1-1.3-1-2.4-2.4-2.4zM52.2 40.6c-2 0-3.6-1.6-3.6-3.6s1.6-3.6 3.6-3.6 3.6 1.6 3.6 3.6-1.6 3.6-3.6 3.6zm0-6c-1.3 0-2.4 1.1-2.4 2.4s1.1 2.4 2.4 2.4c1.3 0 2.4-1.1 2.4-2.4s-1-2.4-2.4-2.4z" class="st2"/>
  <path d="M58.4 40.6c-2 0-3.6-1.6-3.6-3.6s1.6-3.6 3.6-3.6S62 35 62 37s-1.6 3.6-3.6 3.6zm0-6c-1.3 0-2.4 1.1-2.4 2.4s1.1 2.4 2.4 2.4c1.3 0 2.4-1.1 2.4-2.4s-1-2.4-2.4-2.4z" class="st2"/>
  <path d="M64.7 40.6c-2 0-3.6-1.6-3.6-3.6s1.6-3.6 3.6-3.6 3.6 1.6 3.6 3.6-1.6 3.6-3.6 3.6zm0-6c-1.3 0-2.4 1.1-2.4 2.4s1.1 2.4 2.4 2.4 2.4-1.1 2.4-2.4-1-2.4-2.4-2.4zM52.2 49.7c-2 0-3.6-1.6-3.6-3.6s1.6-3.6 3.6-3.6 3.6 1.6 3.6 3.6-1.6 3.6-3.6 3.6zm0-6c-1.3 0-2.4 1.1-2.4 2.4 0 1.3 1.1 2.4 2.4 2.4 1.3 0 2.4-1.1 2.4-2.4.1-1.3-1-2.4-2.4-2.4z" class="st2"/>
  <path d="M58.4 49.7c-2 0-3.6-1.6-3.6-3.6s1.6-3.6 3.6-3.6 3.6 1.6 3.6 3.6-1.6 3.6-3.6 3.6zm0-6c-1.3 0-2.4 1.1-2.4 2.4 0 1.3 1.1 2.4 2.4 2.4 1.3 0 2.4-1.1 2.4-2.4 0-1.3-1-2.4-2.4-2.4z" class="st2"/>
  <path d="M64.7 49.7c-2 0-3.6-1.6-3.6-3.6s1.6-3.6 3.6-3.6 3.6 1.6 3.6 3.6-1.6 3.6-3.6 3.6zm0-6c-1.3 0-2.4 1.1-2.4 2.4 0 1.3 1.1 2.4 2.4 2.4s2.4-1.1 2.4-2.4c.1-1.3-1-2.4-2.4-2.4zM46 58.6c-2 0-3.6-1.6-3.6-3.6s1.6-3.6 3.6-3.6 3.6 1.6 3.6 3.6-1.6 3.6-3.6 3.6zm0-6c-1.3 0-2.4 1.1-2.4 2.4 0 1.3 1.1 2.4 2.4 2.4 1.3 0 2.4-1.1 2.4-2.4 0-1.4-1.1-2.4-2.4-2.4z" class="st3"/>
  <path d="M52.2 58.6c-2 0-3.6-1.6-3.6-3.6s1.6-3.6 3.6-3.6 3.6 1.6 3.6 3.6-1.6 3.6-3.6 3.6zm0-6c-1.3 0-2.4 1.1-2.4 2.4 0 1.3 1.1 2.4 2.4 2.4 1.3 0 2.4-1.1 2.4-2.4.1-1.4-1-2.4-2.4-2.4z" class="st3"/>
  <path d="M58.4 58.6c-2 0-3.6-1.6-3.6-3.6s1.6-3.6 3.6-3.6S62 53 62 55s-1.6 3.6-3.6 3.6zm0-6c-1.3 0-2.4 1.1-2.4 2.4 0 1.3 1.1 2.4 2.4 2.4 1.3 0 2.4-1.1 2.4-2.4 0-1.4-1-2.4-2.4-2.4z" class="st3"/>
  <path d="M64.7 58.6c-2 0-3.6-1.6-3.6-3.6s1.6-3.6 3.6-3.6 3.6 1.6 3.6 3.6-1.6 3.6-3.6 3.6zm0-6c-1.3 0-2.4 1.1-2.4 2.4 0 1.3 1.1 2.4 2.4 2.4s2.4-1.1 2.4-2.4c.1-1.4-1-2.4-2.4-2.4z" class="st3"/>
  <path d="M73.9 78.3h-5.1c-.3 0-.6-.3-.6-.6V26.1c0-1.7 1.4-3.1 3.1-3.1s3.1 1.4 3.1 3.1v51.7c.1.3-.2.5-.5.5zm-4.5-1.1h3.9V26.1c0-1.1-.9-2-2-2s-2 .9-2 2l.1 51.1zm-35.8-9.5c-2 0-3.6-1.6-3.6-3.6s1.6-3.6 3.6-3.6 3.6 1.6 3.6 3.6-1.6 3.6-3.6 3.6zm0-6c-1.3 0-2.4 1.1-2.4 2.4s1.1 2.4 2.4 2.4 2.4-1.1 2.4-2.4c0-1.3-1.1-2.4-2.4-2.4z" class="st4"/>
  <path d="M39.8 67.7c-2 0-3.6-1.6-3.6-3.6s1.6-3.6 3.6-3.6 3.6 1.6 3.6 3.6-1.6 3.6-3.6 3.6zm0-6c-1.3 0-2.4 1.1-2.4 2.4s1.1 2.4 2.4 2.4c1.3 0 2.4-1.1 2.4-2.4 0-1.3-1.1-2.4-2.4-2.4zm24.9 6c-2 0-3.6-1.6-3.6-3.6s1.6-3.6 3.6-3.6 3.6 1.6 3.6 3.6-1.6 3.6-3.6 3.6zm0-6c-1.3 0-2.4 1.1-2.4 2.4s1.1 2.4 2.4 2.4 2.4-1.1 2.4-2.4c.1-1.3-1-2.4-2.4-2.4zM45.4 77.2c-2 0-3.6-1.6-3.6-3.6s1.6-3.6 3.6-3.6 3.6 1.6 3.6 3.6-1.6 3.6-3.6 3.6zm0-6c-1.3 0-2.4 1.1-2.4 2.4s1.1 2.4 2.4 2.4c1.3 0 2.4-1.1 2.4-2.4s-1.1-2.4-2.4-2.4z" class="st3"/>
  <path d="M39.1 77.2c-2 0-3.6-1.6-3.6-3.6s1.6-3.6 3.6-3.6 3.6 1.6 3.6 3.6-1.6 3.6-3.6 3.6zm0-6c-1.3 0-2.4 1.1-2.4 2.4s1.1 2.4 2.4 2.4c1.3 0 2.4-1.1 2.4-2.4s-1.1-2.4-2.4-2.4zm12.8 6c-2 0-3.6-1.6-3.6-3.6s1.6-3.6 3.6-3.6 3.6 1.6 3.6 3.6-1.6 3.6-3.6 3.6zm0-6c-1.3 0-2.4 1.1-2.4 2.4s1.1 2.4 2.4 2.4c1.3 0 2.4-1.1 2.4-2.4s-1.1-2.4-2.4-2.4z" class="st5"/>
  <path d="M58.4 77.2c-2 0-3.6-1.6-3.6-3.6s1.6-3.6 3.6-3.6 3.6 1.6 3.6 3.6c-.1 2-1.7 3.6-3.6 3.6zm0-6c-1.3 0-2.4 1.1-2.4 2.4s1.1 2.4 2.4 2.4c1.3 0 2.4-1.1 2.4-2.4s-1.1-2.4-2.4-2.4z" class="st5"/>
  <path d="M64.8 77.2c-2 0-3.6-1.6-3.6-3.6s1.6-3.6 3.6-3.6 3.6 1.6 3.6 3.6-1.6 3.6-3.6 3.6zm0-6c-1.3 0-2.4 1.1-2.4 2.4s1.1 2.4 2.4 2.4 2.4-1.1 2.4-2.4c.1-1.3-1-2.4-2.4-2.4zm4-43.2h-1c-.3 0-.6-.3-.6-.6s.3-.6.6-.6h1c.3 0 .6.3.6.6s-.3.6-.6.6zm-32.4 0h-7c-.3 0-.6-.3-.6-.6s.3-.6.6-.6h7c.3 0 .6.3.6.6s-.2.6-.6.6zm32.4 9.6h-1c-.3 0-.6-.3-.6-.6s.3-.6.6-.6h1c.3 0 .6.3.6.6 0 .4-.3.6-.6.6zm-19.6 0H29.4c-.3 0-.6-.3-.6-.6s.3-.6.6-.6h19.8c.3 0 .6.3.6.6 0 .4-.2.6-.6.6zm19.6 9.1h-1c-.3 0-.6-.3-.6-.6s.3-.6.6-.6h1c.3 0 .6.3.6.6 0 .4-.3.6-.6.6zm-19.6 0H29.4c-.3 0-.6-.3-.6-.6s.3-.6.6-.6h19.8c.3 0 .6.3.6.6 0 .4-.2.6-.6.6zm19.6 8.9h-1c-.3 0-.6-.3-.6-.6s.3-.6.6-.6h1c.3 0 .6.3.6.6s-.3.6-.6.6zm-25.8 0H29.4c-.3 0-.6-.3-.6-.6s.3-.6.6-.6H43c.3 0 .6.3.6.6s-.3.6-.6.6zm25.8 9.1h-1c-.3 0-.6-.3-.6-.6s.3-.6.6-.6h1c.3 0 .6.3.6.6s-.3.6-.6.6zm-7.1 0H42.8c-.3 0-.6-.3-.6-.6s.3-.6.6-.6h18.9c.3 0 .6.3.6.6s-.2.6-.6.6z" class="st4"/>
  <path d="M68.8 74.2h-.9c-.3 0-.6-.3-.6-.6s.3-.6.6-.6h.9c.3 0 .6.3.6.6s-.3.6-.6.6zm-32.7 0h-6.7c-.3 0-.6-.3-.6-.6s.3-.6.6-.6h6.7c.3 0 .6.3.6.6s-.3.6-.6.6z" class="st4"/>
</svg>
