<?xml version="1.0" standalone="yes"?>

<svg version="1.1" viewBox="0.0 0.0 800.0 800.0" fill="none" stroke="none" stroke-linecap="square" stroke-miterlimit="10" xmlns="http://www.w3.org/2000/svg" xmlns:xlink="http://www.w3.org/1999/xlink"><clipPath id="p.0"><path d="m0 0l800.0 0l0 800.0l-800.0 0l0 -800.0z" clip-rule="nonzero"></path></clipPath><g clip-path="url(#p.0)"><path fill="#000000" fill-opacity="0.0" d="m0 0l800.0 0l0 800.0l-800.0 0z" fill-rule="nonzero"></path><path fill="#000000" d="m-2.5984253E-5 133.33597l0 0c0 -73.639435 59.69656 -133.336 133.336 -133.336l533.328 0l0 0c35.362854 0 69.277405 14.047859 94.282776 39.05321c25.00531 25.005348 39.053223 58.919884 39.053223 94.28278l0 533.328c0 73.639404 -59.696594 133.336 -133.336 133.336l-533.328 0c-73.639435 0 -133.336 -59.696594 -133.336 -133.336z" fill-rule="nonzero"></path><path fill="#4a86e8" d="m26.994307 151.33275l0 0c0 -68.67023 55.668213 -124.33844 124.33844 -124.33844l497.33887 0l0 0c32.976562 0 64.60254 13.099905 87.92053 36.417885c23.317993 23.317986 36.417908 54.943954 36.417908 87.920555l0 497.33887c0 68.67023 -55.668213 124.33844 -124.33844 124.33844l-497.33887 0c-68.67023 0 -124.33844 -55.668213 -124.33844 -124.33844z" fill-rule="nonzero"></path><path fill="#d9d9d9" d="m93.51312 352.65143l0 0c0 -14.490143 11.74659 -26.236725 26.236748 -26.236725l586.5816 0c6.958435 0 13.631836 2.7642212 18.552185 7.6845703c4.920349 4.9203186 7.6845703 11.59375 7.6845703 18.552155l0 104.94385c0 14.490143 -11.746582 26.236755 -26.236755 26.236755l-586.5816 0l0 0c-14.490158 0 -26.236748 -11.746613 -26.236748 -26.236755z" fill-rule="nonzero"></path><path fill="#ffffff" d="m80.47113 342.40997l0 0c0 -14.490143 11.74659 -26.236755 26.23674 -26.236755l586.5816 0c6.958435 0 13.631836 2.7642212 18.552185 7.6845703c4.920349 4.920349 7.6845703 11.5937805 7.6845703 18.552185l0 104.94385c0 14.490143 -11.746582 26.236725 -26.236755 26.236725l-586.5816 0l0 0c-14.49015 0 -26.23674 -11.746582 -26.23674 -26.236725z" fill-rule="nonzero"></path><path fill="#d9d9d9" d="m958.063 576.45074l178.50269 0l109.024414 140.02087l276.8391 -448.9271l135.74438 0l-349.93298 606.10144l-109.68201 0z" fill-rule="nonzero"></path><path fill="#ffffff" d="m944.8583 568.834l178.50269 0l109.024414 140.02081l276.8391 -448.9271l135.74438 0l-349.93298 606.10144l-109.68213 0z" fill-rule="nonzero"></path></g></svg>

